<svg width="24" height="24" viewBox="0 0 24 24" fill="none" xmlns="http://www.w3.org/2000/svg">
<path d="M18.0091 15.2258C18.4231 15.2256 18.759 14.8899 18.759 14.4758L18.7576 6.02232C18.758 6.01178 18.759 6.00121 18.759 5.99056C18.759 5.9159 18.7448 5.84454 18.7245 5.77649C18.7172 5.75224 18.7114 5.72755 18.7017 5.70399C18.6808 5.65368 18.6544 5.60652 18.6236 5.56243C18.5987 5.52673 18.5712 5.49209 18.5394 5.46023C18.5075 5.42838 18.4729 5.4009 18.4372 5.37598C18.4334 5.37331 18.4293 5.37099 18.4255 5.36839C18.4012 5.35212 18.3751 5.34009 18.3495 5.32696C18.3317 5.31773 18.315 5.30645 18.2963 5.29864C18.2734 5.28915 18.2494 5.28367 18.2259 5.27655C18.1565 5.2553 18.0841 5.23927 18.0077 5.23926C17.9992 5.23926 17.9905 5.24105 17.9821 5.24133L9.5224 5.23926C9.10826 5.23929 8.77253 5.57502 8.77248 5.98918C8.77262 6.4032 9.10833 6.73901 9.5224 6.7391L16.1985 6.74048L5.45792 17.481C5.16509 17.7739 5.16505 18.2488 5.45792 18.5417C5.75079 18.8345 6.22569 18.8345 6.51858 18.5417L17.2578 7.80252L17.2591 14.4758C17.2592 14.89 17.5949 15.2258 18.0091 15.2258Z" fill="#ffffff"/>
</svg>
