<svg width="24" height="24" viewBox="0 0 24 24" fill="none" xmlns="http://www.w3.org/2000/svg">
<path d="M20.25 14.5C20.6642 14.5 21 14.8358 21 15.25V18.0498C21 19.679 19.679 21 18.0498 21H5.9502C4.37199 21 3.08309 19.7607 3.00391 18.2021L3 18.0498V15.25C3 14.8358 3.33579 14.5 3.75 14.5C4.16421 14.5 4.5 14.8358 4.5 15.25V18.0498L4.50781 18.1982C4.58208 18.9294 5.19944 19.5 5.9502 19.5H18.0498C18.8506 19.5 19.5 18.8506 19.5 18.0498V15.25C19.5 14.8358 19.8358 14.5 20.25 14.5Z" fill="black"/>
<path d="M12 3C12.4142 3 12.75 3.33579 12.75 3.75V14.4395L15.4697 11.7197C15.7626 11.4268 16.2374 11.4268 16.5303 11.7197C16.8231 12.0126 16.8231 12.4874 16.5303 12.7803L12.6006 16.71C12.5848 16.7258 12.5675 16.7396 12.5508 16.7539C12.4137 16.9037 12.2191 17 12 17C11.7807 17 11.5854 16.904 11.4482 16.7539C11.4317 16.7398 11.4151 16.7256 11.3994 16.71L7.46973 12.7803C7.17683 12.4874 7.17683 12.0126 7.46973 11.7197C7.76262 11.4268 8.23738 11.4268 8.53027 11.7197L11.25 14.4395V3.75C11.25 3.33579 11.5858 3 12 3Z" fill="black"/>
</svg>
