<svg width="14" height="14" viewBox="0 0 14 14" fill="none" xmlns="http://www.w3.org/2000/svg">
<path fill-rule="evenodd" clip-rule="evenodd" d="M7.93709 2.41591C8.82499 1.52811 10.2644 1.52811 11.1523 2.41591L11.5846 2.84829C12.4724 3.73615 12.4724 5.17562 11.5846 6.06346L5.52572 12.1224C5.43885 12.2091 5.32451 12.2514 5.21069 12.25H2.1875C1.94591 12.25 1.75006 12.0541 1.75 11.8125V8.77903C1.75119 8.66854 1.79397 8.55847 1.87817 8.47426L7.93709 2.41591ZM2.625 8.96531V11.375H5.03581L10.0357 6.37449L7.62549 3.96425L2.625 8.96531ZM10.5336 3.03457C9.98742 2.48844 9.10194 2.48845 8.55575 3.03457L8.24414 3.3456L10.6544 5.75584L10.966 5.4448C11.5121 4.89867 11.5121 4.0131 10.966 3.46694L10.5336 3.03457Z" fill="white"/>
</svg>
