<svg width="16" height="16" viewBox="0 0 16 16" fill="none" xmlns="http://www.w3.org/2000/svg">
<path d="M5.66659 14.6667C6.95459 14.6667 7.99992 13.6711 7.99992 12.4444V10.2222H5.66659C4.37859 10.2222 3.33325 11.2178 3.33325 12.4444C3.33325 13.6711 4.37859 14.6667 5.66659 14.6667Z" fill="#0ACF83"/>
<path d="M3.33325 8C3.33325 6.77333 4.37859 5.77778 5.66659 5.77778H7.99992V10.2222H5.66659C4.37859 10.2222 3.33325 9.22667 3.33325 8Z" fill="#A259FF"/>
<path d="M3.33325 3.55556C3.33325 2.32889 4.37859 1.33334 5.66659 1.33334H7.99992V5.77778H5.66659C4.37859 5.77778 3.33325 4.78222 3.33325 3.55556Z" fill="#F24E1E"/>
<path d="M8 1.33334H10.3333C11.6213 1.33334 12.6667 2.32889 12.6667 3.55556C12.6667 4.78222 11.6213 5.77778 10.3333 5.77778H8V1.33334Z" fill="#FF7262"/>
<path d="M12.6667 8C12.6667 9.22667 11.6213 10.2222 10.3333 10.2222C9.04533 10.2222 8 9.22667 8 8C8 6.77333 9.04533 5.77778 10.3333 5.77778C11.6213 5.77778 12.6667 6.77333 12.6667 8Z" fill="#1ABCFE"/>
</svg>
