<svg width="40" height="20" viewBox="0 0 40 20" fill="none" xmlns="http://www.w3.org/2000/svg" aria-hidden="true">
<g id="Toggle Light" clip-path="url(#clip0_0_4)">
<path id="BG" d="M0 10C0 4.47715 4.47715 0 10 0H30C35.5228 0 40 4.47715 40 10C40 15.5228 35.5228 20 30 20H10C4.47715 20 0 15.5228 0 10Z" fill="var(--fill-0, #535353)"/>
<g id="ic_sun">
<g id="Union">
<path d="M11 15.2253C11.2761 15.2253 11.5 15.4491 11.5 15.7253V16.2747C11.5 16.5509 11.2761 16.7747 11 16.7747C10.7239 16.7747 10.5 16.5509 10.5 16.2747V15.7253C10.5 15.4491 10.7239 15.2253 11 15.2253Z" fill="var(--fill-0, white)"/>
<path d="M6.59766 13.6947C6.79292 13.4994 7.11008 13.4994 7.30534 13.6947C7.50046 13.8898 7.50035 14.2064 7.30534 14.4017L6.91667 14.7904C6.72142 14.9856 6.4049 14.9856 6.20964 14.7904C6.01437 14.5951 6.01437 14.2786 6.20964 14.0833L6.59766 13.6947Z" fill="var(--fill-0, white)"/>
<path d="M14.6947 13.6947C14.8899 13.4995 15.2064 13.4996 15.4017 13.6947L15.7904 14.0833C15.9856 14.2786 15.9856 14.5951 15.7904 14.7904C15.5951 14.9856 15.2786 14.9856 15.0833 14.7904L14.6947 14.4017C14.4996 14.2064 14.4995 13.8899 14.6947 13.6947Z" fill="var(--fill-0, white)"/>
<path fill-rule="evenodd" clip-rule="evenodd" d="M11 6.13411C13.135 6.13429 14.8664 7.86501 14.8665 10C14.8664 12.135 13.135 13.8664 11 13.8665C8.86499 13.8664 7.13426 12.135 7.13411 10C7.13425 7.86499 8.86499 6.13425 11 6.13411ZM11 7.13411C9.41728 7.13425 8.13425 8.41728 8.13411 10C8.13426 11.5827 9.41728 12.8664 11 12.8665C12.5827 12.8664 13.8664 11.5827 13.8665 10C13.8664 8.4173 12.5827 7.13429 11 7.13411Z" fill="var(--fill-0, white)"/>
<path d="M5.27474 9.5C5.55088 9.5 5.77474 9.72386 5.77474 10C5.77474 10.2761 5.55088 10.5 5.27474 10.5H4.72526C4.44912 10.5 4.22526 10.2761 4.22526 10C4.22526 9.72386 4.44912 9.5 4.72526 9.5H5.27474Z" fill="var(--fill-0, white)"/>
<path d="M17.2747 9.5C17.5509 9.5 17.7747 9.72386 17.7747 10C17.7747 10.2761 17.5509 10.5 17.2747 10.5H16.7253C16.4491 10.5 16.2253 10.2761 16.2253 10C16.2253 9.72386 16.4491 9.5 16.7253 9.5H17.2747Z" fill="var(--fill-0, white)"/>
<path d="M6.20964 5.20964C6.4049 5.01439 6.72141 5.01438 6.91667 5.20964L7.30534 5.59831C7.50039 5.79358 7.50052 6.11014 7.30534 6.30534C7.11014 6.50053 6.79359 6.5004 6.59831 6.30534L6.20964 5.91667C6.01437 5.7214 6.01437 5.4049 6.20964 5.20964Z" fill="var(--fill-0, white)"/>
<path d="M15.0833 5.20964C15.2786 5.01439 15.5951 5.01443 15.7904 5.20964C15.9856 5.4049 15.9856 5.7214 15.7904 5.91667L15.4023 6.30534C15.2071 6.5006 14.8899 6.5006 14.6947 6.30534C14.4995 6.11015 14.4997 5.79357 14.6947 5.59831L15.0833 5.20964Z" fill="var(--fill-0, white)"/>
<path d="M11 3.22526C11.2761 3.22526 11.5 3.44912 11.5 3.72526V4.27474C11.5 4.55088 11.2761 4.77474 11 4.77474C10.7239 4.77474 10.5 4.55088 10.5 4.27474V3.72526C10.5 3.44912 10.7239 3.22526 11 3.22526Z" fill="var(--fill-0, white)"/>
</g>
</g>
<circle id="Control" cx="30" cy="10" r="8" fill="var(--fill-0, #212121)"/>
</g>
<defs>
<clipPath id="clip0_0_4">
<rect width="40" height="20" fill="white"/>
</clipPath>
</defs>
</svg>
