<svg width="40" height="20" viewBox="0 0 40 20" fill="none" xmlns="http://www.w3.org/2000/svg" aria-hidden="true">
<g id="Toggle Dark" clip-path="url(#clip0_0_4)">
<path id="BG" d="M0 10C0 4.47715 4.47715 0 10 0H30C35.5228 0 40 4.47715 40 10C40 15.5228 35.5228 20 30 20H10C4.47715 20 0 15.5228 0 10Z" fill="var(--fill-0, #535353)"/>
<circle id="Control" cx="10" cy="10" r="8" fill="var(--fill-0, #212121)"/>
<g id="ic_night">
<path id="Union" fill-rule="evenodd" clip-rule="evenodd" d="M27.9361 3.92424C28.0975 3.896 28.2629 3.94902 28.3781 4.06552C28.4934 4.18221 28.5445 4.34834 28.5142 4.50953C28.3803 5.22254 28.4002 5.95477 28.5715 6.65731L28.6542 6.95614V6.95809C28.8666 7.65315 29.2272 8.29266 29.7095 8.83309L29.9237 9.05835L29.9263 9.06096C30.5138 9.65206 31.2369 10.0907 32.0324 10.339C32.828 10.5871 33.6727 10.6377 34.4921 10.4854C34.6526 10.4557 34.8178 10.5058 34.9341 10.6202C35.0506 10.7347 35.1033 10.8993 35.0761 11.0603C34.8366 12.477 34.0907 13.758 32.9778 14.6664L32.9784 14.6671C31.8844 15.5942 30.4929 16.096 29.0591 16.0824L29.0598 16.0831L29.0559 16.0824C29.054 16.0825 29.0519 16.0831 29.05 16.0831C28.2284 16.0882 27.4142 15.9237 26.6594 15.5987C25.194 14.9739 24.0261 13.8063 23.4009 12.3409L23.4016 12.3403C23.0753 11.5826 22.91 10.7654 22.9172 9.94052C22.9028 8.50784 23.4057 7.11751 24.3339 6.0258C25.2448 4.91749 26.5228 4.17161 27.9361 3.92424ZM27.4374 5.07528C26.5267 5.36861 25.7139 5.91946 25.1015 6.66708L25.0956 6.67359C24.3216 7.58389 23.9032 8.7438 23.9172 9.93856C23.9172 9.94191 23.9172 9.94563 23.9172 9.94898C23.912 10.5498 24.0162 11.146 24.2245 11.7081L24.3202 11.947L24.3209 11.949C24.8122 13.1007 25.7035 14.0326 26.8254 14.5759L27.0533 14.6794L27.0546 14.6801C27.6848 14.9515 28.3652 15.0891 29.0513 15.0837L29.0611 15.0831C30.2575 15.0962 31.4185 14.6775 32.3313 13.9041C32.3338 13.9019 32.3365 13.8996 32.3391 13.8975C33.0897 13.287 33.64 12.4727 33.9289 11.5597C33.1897 11.6047 32.4459 11.5158 31.7349 11.294C30.784 10.9973 29.9196 10.4726 29.2173 9.76604C28.5111 9.06592 27.9885 8.20151 27.6978 7.25041C27.48 6.54531 27.3922 5.80775 27.4374 5.07528Z" fill="var(--fill-0, white)"/>
</g>
</g>
<defs>
<clipPath id="clip0_0_4">
<rect width="40" height="20" fill="white"/>
</clipPath>
</defs>
</svg>
